<?xml version="1.0" standalone="no"?>
<!DOCTYPE svg PUBLIC "-//W3C//DTD SVG 20010904//EN"
 "http://www.w3.org/TR/2001/REC-SVG-20010904/DTD/svg10.dtd">
<svg version="1.0" xmlns="http://www.w3.org/2000/svg"
 width="1280.000000pt" height="1280.000000pt" viewBox="0 0 1280.000000 1280.000000"
 preserveAspectRatio="xMidYMid meet">
<metadata>
Created by potrace 1.15, written by Peter Selinger 2001-2017
</metadata>
<g transform="translate(0.000000,1280.000000) scale(0.100000,-0.100000)"
fill="#03a9f4" stroke="none">
<path d="M6005 12510 c-70 -23 -148 -80 -177 -130 l-20 -35 27 33 c65 79 205
85 175 8 -15 -40 -12 -108 6 -134 21 -30 66 -52 108 -52 45 0 92 39 107 89 10
33 8 45 -10 86 -28 63 -27 71 10 84 44 15 72 14 116 -6 48 -23 57 -29 107 -78
40 -40 40 -40 15 -5 -36 49 -114 106 -179 132 -79 30 -206 34 -285 8z"/>
<path d="M7110 12328 c-25 -13 -53 -37 -63 -56 -15 -26 -16 -31 -4 -26 9 3 31
-8 54 -29 21 -18 47 -37 57 -41 26 -9 63 17 84 61 24 51 45 62 73 38 l23 -20
-22 31 c-23 34 -85 64 -130 64 -15 0 -48 -10 -72 -22z"/>
<path d="M2023 12093 c-10 -10 -17 -17 -15 -16 3 1 12 -7 22 -19 9 -12 22 -18
28 -14 16 10 15 46 0 47 -7 0 -4 4 7 9 19 8 19 9 -1 9 -12 1 -30 -7 -41 -16z"/>
<path d="M7340 12102 c0 -17 -60 -81 -91 -98 -51 -26 -137 -15 -185 24 -11 9
-6 3 12 -15 57 -56 147 -56 210 -1 36 32 70 86 60 96 -3 3 -6 0 -6 -6z"/>
<path d="M6511 12024 c-31 -57 -89 -110 -160 -143 -50 -23 -68 -26 -166 -26
-106 0 -113 1 -185 36 -44 21 -95 56 -125 85 -36 36 -43 40 -27 17 32 -45 90
-88 169 -125 62 -30 76 -32 168 -32 118 -1 187 22 257 83 39 35 106 136 96
146 -2 2 -14 -16 -27 -41z"/>
<path d="M2820 11923 c-21 -8 -50 -34 -50 -45 0 -5 7 -2 16 6 19 19 27 21 21
4 -13 -36 37 -64 62 -34 12 14 5 46 -10 46 -19 0 -8 19 14 23 16 3 15 4 -8 5
-16 0 -37 -2 -45 -5z"/>
<path d="M5939 11669 c-13 -11 -19 -18 -13 -15 7 3 14 -3 17 -14 6 -23 35 -27
43 -5 4 8 1 21 -5 29 -6 7 -8 16 -4 19 17 17 -18 5 -38 -14z"/>
<path d="M11544 11680 c-12 -5 -25 -13 -28 -19 -4 -7 -1 -8 9 -5 11 4 14 2 10
-9 -8 -19 23 -31 41 -16 11 9 11 15 3 25 -6 7 -8 18 -4 24 7 12 -2 12 -31 0z"/>
<path d="M10668 11648 c-13 -13 -19 -20 -14 -15 17 12 26 8 26 -12 0 -29 25
-45 49 -31 27 14 27 35 0 54 -20 13 -20 14 -2 19 12 3 10 5 -9 6 -16 1 -37 -8
-50 -21z"/>
<path d="M8166 11455 c-21 -7 -44 -19 -50 -25 -8 -10 -6 -10 11 -1 34 17 43
14 37 -17 -7 -36 14 -54 58 -50 25 2 34 8 36 24 2 11 -4 27 -13 34 -25 21 -18
33 18 26 20 -3 26 -2 17 3 -30 17 -76 20 -114 6z"/>
<path d="M3603 11404 c-15 -15 -20 -21 -10 -14 14 11 17 10 17 -8 0 -25 23
-45 47 -40 24 4 28 35 8 58 -16 18 -15 19 12 23 24 3 23 4 -9 6 -27 1 -44 -6
-65 -25z"/>
<path d="M5322 11375 c-16 -14 -32 -35 -35 -47 -5 -21 -5 -21 7 -6 12 17 15
16 42 -7 38 -33 70 -32 104 5 33 35 37 36 63 13 19 -18 20 -17 8 5 -33 62
-136 82 -189 37z"/>
<path d="M3795 11326 c-90 -28 -153 -78 -200 -157 -19 -33 -34 -63 -34 -67 1
-4 0 -9 -1 -12 -1 -3 -4 -27 -7 -54 -3 -33 -1 -46 6 -41 6 3 11 20 11 37 0 23
4 29 15 24 19 -7 19 -1 0 17 -12 13 -9 20 25 55 22 22 40 47 40 54 0 42 171
136 267 148 l68 7 -75 1 c-41 0 -93 -5 -115 -12z m-180 -176 c-10 -11 -20 -18
-22 -16 -6 5 30 44 36 39 2 -1 -4 -12 -14 -23z"/>
<path d="M3473 11264 c-23 -21 -24 -23 -6 -14 19 9 22 8 17 -5 -8 -20 13 -45
37 -45 26 0 43 34 24 50 -20 16 -19 28 3 33 9 3 3 5 -15 6 -21 1 -41 -7 -60
-25z"/>
<path d="M3580 11276 c0 -2 7 -7 16 -10 8 -3 12 -2 9 4 -6 10 -25 14 -25 6z"/>
<path d="M3773 11230 c-28 -11 -63 -67 -63 -99 0 -35 44 -88 86 -101 99 -33
195 61 150 148 -28 54 -109 78 -173 52z"/>
<path d="M5517 11225 c-10 -24 -69 -55 -107 -55 -19 0 -53 9 -74 21 -21 11
-35 15 -31 9 10 -16 81 -50 105 -50 35 0 88 27 106 54 9 15 14 29 12 32 -3 3
-8 -2 -11 -11z"/>
<path d="M3462 11064 c-12 -8 -22 -20 -22 -26 0 -7 5 -6 14 1 12 10 15 8 18
-11 2 -18 9 -23 33 -23 35 0 48 32 20 48 -14 8 -15 11 -4 18 10 6 7 9 -11 9
-14 0 -36 -7 -48 -16z"/>
<path d="M4253 11005 c0 -22 2 -30 4 -17 2 12 2 30 0 40 -3 9 -5 -1 -4 -23z"/>
<path d="M6644 11008 c-15 -19 -16 -20 -1 -9 15 12 17 11 17 -8 0 -14 6 -21
19 -21 27 0 34 15 19 40 -16 26 -30 25 -54 -2z"/>
<path d="M1989 10995 c-15 -8 -30 -22 -33 -32 -6 -14 -5 -16 5 -5 19 18 27 15
31 -10 4 -28 39 -36 58 -13 11 13 10 18 -4 33 -20 23 -20 29 2 35 11 3 9 5 -8
5 -14 1 -37 -5 -51 -13z"/>
<path d="M4241 10953 c-1 -6 -4 -20 -7 -30 -5 -17 -5 -17 6 0 6 10 9 23 6 30
-3 9 -5 9 -5 0z"/>
<path d="M3584 10925 c-10 -8 -14 -15 -8 -15 6 0 17 7 24 15 16 19 9 19 -16 0z"/>
<path d="M4182 10839 c-40 -47 -98 -86 -167 -111 -39 -14 -42 -17 -15 -12 51
9 106 39 157 87 37 34 71 77 61 77 -2 0 -18 -19 -36 -41z"/>
<path d="M6951 10848 c-37 -24 -85 -93 -59 -83 8 3 31 -8 52 -24 21 -17 47
-33 57 -36 27 -9 65 18 85 60 23 50 48 61 68 33 9 -12 16 -18 16 -12 0 5 -16
25 -35 44 -30 29 -43 34 -92 38 -48 3 -64 0 -92 -20z"/>
<path d="M9759 10770 c-17 -14 -19 -18 -6 -14 11 4 17 1 17 -10 0 -18 35 -22
46 -4 4 6 -1 17 -10 24 -16 12 -16 13 1 17 15 4 15 5 -3 6 -12 0 -32 -8 -45
-19z"/>
<path d="M3808 10713 c7 -3 16 -2 19 1 4 3 -2 6 -13 5 -11 0 -14 -3 -6 -6z"/>
<path d="M3893 10703 c15 -2 37 -2 50 0 12 2 0 4 -28 4 -27 0 -38 -2 -22 -4z"/>
<path d="M4699 10685 c-15 -8 -30 -22 -33 -32 -6 -15 -5 -15 14 2 20 18 20 18
20 -2 0 -26 25 -47 45 -39 24 9 29 35 10 56 -16 18 -16 19 12 23 25 4 24 4 -7
5 -19 1 -47 -5 -61 -13z"/>
<path d="M4885 10644 c-14 -15 -25 -32 -25 -38 0 -6 7 0 16 12 14 21 42 33 30
13 -12 -19 7 -41 34 -41 37 0 49 29 21 52 -15 11 -17 18 -9 21 7 3 0 6 -15 6
-18 1 -37 -8 -52 -25z"/>
<path d="M7165 10607 c-32 -50 -81 -77 -137 -77 -52 0 -78 9 -118 44 l-25 21
25 -28 c34 -40 71 -57 120 -57 62 0 116 35 147 93 20 39 12 42 -12 4z"/>
<path d="M3253 10600 c-18 -11 -33 -23 -33 -27 0 -4 5 -2 12 5 7 7 20 12 31
12 14 0 17 -5 12 -21 -13 -41 52 -78 83 -47 19 19 14 45 -10 62 -22 16 -22 16
12 16 26 0 31 3 20 10 -25 16 -93 11 -127 -10z"/>
<path d="M5078 10554 c-16 -8 -28 -20 -28 -26 0 -9 3 -9 12 0 18 18 27 15 21
-7 -3 -13 2 -23 15 -30 42 -22 76 17 41 47 -20 17 -19 17 13 23 33 6 33 6 -7
7 -22 1 -52 -6 -67 -14z"/>
<path d="M4625 10529 c-171 -22 -324 -129 -401 -281 -27 -54 -32 -79 -6 -32
31 56 138 140 245 193 244 120 363 126 533 26 45 -27 52 -29 29 -10 -93 79
-261 122 -400 104z"/>
<path d="M958 10509 c-16 -9 -16 -11 0 -29 22 -26 52 -26 52 0 0 11 -6 20 -12
20 -9 0 -8 4 2 10 12 8 12 10 -5 10 -11 -1 -28 -5 -37 -11z"/>
<path d="M4514 10351 c-136 -62 -137 -264 -2 -330 128 -61 268 24 268 164 0
138 -138 224 -266 166z"/>
<path d="M8052 10230 c-36 -22 -72 -75 -72 -105 0 -15 3 -17 9 -7 7 11 16 10
49 -7 74 -37 113 -22 126 49 10 56 20 66 50 52 36 -16 32 -6 -6 18 -43 26
-113 26 -156 0z"/>
<path d="M7096 10154 c-91 -29 -181 -105 -212 -180 -21 -50 -16 -65 5 -17 23
50 59 75 109 77 40 1 37 7 41 -92 1 -13 14 -37 30 -53 24 -23 38 -29 73 -29
50 0 82 19 104 62 21 40 12 82 -28 132 l-31 39 28 23 c16 13 43 24 60 26 34 4
126 -24 164 -49 22 -14 24 -14 13 -1 -7 8 -40 28 -75 44 -77 35 -203 43 -281
18z"/>
<path d="M1464 10145 c-14 -11 -15 -14 -2 -9 11 4 16 0 15 -13 -1 -12 6 -19
21 -21 17 -3 22 2 22 17 0 12 -5 21 -11 21 -5 0 -7 5 -4 10 9 15 -19 12 -41
-5z"/>
<path d="M9153 10140 c-35 -21 -46 -38 -14 -20 31 16 43 12 36 -11 -13 -41 52
-78 83 -47 17 17 15 38 -5 60 -15 17 -15 18 13 19 25 0 26 2 9 9 -35 15 -89
11 -122 -10z"/>
<path d="M6720 10105 c-11 -13 -10 -14 3 -10 10 5 15 1 14 -11 -2 -22 32 -32
43 -13 11 16 -10 49 -31 49 -9 0 -22 -7 -29 -15z"/>
<path d="M8283 10048 c-15 -55 -43 -91 -87 -112 -39 -19 -98 -21 -128 -5 -14
7 -18 8 -14 0 4 -5 23 -15 44 -20 79 -22 169 33 192 118 6 23 10 47 8 52 -2 6
-9 -9 -15 -33z"/>
<path d="M9612 10023 c-7 -2 -17 -14 -23 -26 -9 -18 -9 -20 2 -9 16 15 33 16
24 2 -10 -16 14 -40 40 -40 32 0 41 31 16 52 -15 11 -17 18 -9 21 7 3 2 5 -12
5 -14 0 -31 -2 -38 -5z"/>
<path d="M9164 10010 c-64 -13 -108 -35 -154 -76 -40 -36 -91 -119 -89 -146 0
-7 5 -1 10 14 10 27 77 78 104 78 12 0 15 -13 15 -61 0 -53 3 -64 29 -89 16
-16 40 -32 55 -36 38 -9 74 3 107 36 23 23 29 37 29 73 0 52 -24 87 -78 118
-22 12 -27 16 -12 12 43 -14 113 -8 154 12 37 18 41 18 70 2 l31 -17 -25 20
c-14 11 -31 25 -37 30 -7 6 -13 9 -13 6 0 -3 -15 1 -32 8 -46 19 -116 25 -164
16z m170 -29 c34 -13 -19 -41 -79 -41 -71 0 -86 13 -38 33 41 17 86 20 117 8z"/>
<path d="M5242 9985 c0 -16 2 -22 5 -12 2 9 2 23 0 30 -3 6 -5 -1 -5 -18z"/>
<path d="M12010 9989 c-14 -6 -20 -13 -14 -17 6 -4 13 -15 17 -24 3 -10 13
-18 22 -18 20 0 30 27 16 44 -6 7 -8 16 -4 19 9 10 -7 8 -37 -4z"/>
<path d="M6203 9938 c-18 -5 -38 -18 -44 -31 -9 -18 -9 -20 2 -9 16 15 33 16
24 2 -10 -16 14 -40 40 -40 32 0 41 31 16 52 -15 11 -17 18 -9 21 26 9 2 14
-29 5z"/>
<path d="M5227 9900 c-14 -80 -73 -187 -141 -255 -150 -149 -394 -206 -557
-130 -30 14 -61 25 -69 25 -9 0 -33 11 -55 25 l-40 26 33 -27 33 -27 -28 -31
c-15 -17 -21 -25 -13 -18 20 17 28 15 32 -10 2 -18 10 -23 33 -23 24 0 31 5
33 24 3 20 8 22 30 16 273 -67 504 10 638 212 41 62 87 183 82 216 -2 14 -7 5
-11 -23z"/>
<path d="M3103 9872 c-42 -17 -106 -71 -124 -104 -14 -25 -28 -109 -18 -102 5
3 9 14 9 24 0 32 11 50 41 65 35 18 39 19 39 1 0 -29 41 -66 74 -66 91 0 104
86 20 137 -18 10 -18 12 -2 29 10 10 37 21 60 25 l43 6 -50 1 c-27 1 -69 -7
-92 -16z"/>
<path d="M5414 9861 c-62 -28 -115 -108 -113 -170 1 -19 4 -15 11 16 14 62 39
73 84 34 39 -34 46 -36 77 -20 44 24 47 45 11 88 -31 37 -22 57 29 64 25 3 22
4 -13 5 -25 1 -63 -7 -86 -17z"/>
<path d="M10664 9858 c-15 -19 -16 -20 -1 -9 15 12 17 11 17 -8 0 -14 6 -21
19 -21 28 0 37 21 17 36 -13 9 -14 13 -4 17 7 3 4 6 -8 6 -11 1 -29 -9 -40
-21z"/>
<path d="M6365 9831 c-62 -11 -152 -60 -197 -107 -49 -51 -75 -92 -34 -55 14
14 26 20 26 14 0 -12 -29 -38 -52 -46 -10 -4 -18 -11 -18 -18 0 -19 64 25 85
58 16 25 30 33 63 39 56 8 69 -4 48 -44 -26 -50 -29 -103 -9 -142 69 -134 263
-90 263 60 0 48 -13 73 -62 126 l-29 31 31 13 c40 17 121 14 167 -5 21 -9 58
-35 82 -58 41 -39 42 -39 22 -9 -31 45 -103 98 -166 121 -62 23 -161 33 -220
22z"/>
<path d="M7567 9790 c-12 -59 -66 -129 -109 -140 -21 -6 -47 -24 -61 -41 -17
-22 -35 -32 -65 -36 -42 -6 -61 11 -24 20 9 3 0 3 -21 2 -23 -2 -49 -12 -63
-26 -20 -19 -30 -21 -71 -15 -26 3 -78 21 -115 39 -36 18 -64 29 -61 25 9 -16
120 -66 159 -73 21 -4 46 -9 54 -12 8 -3 24 -7 35 -9 11 -1 32 -6 46 -9 19 -5
33 0 57 20 18 15 39 24 47 21 8 -3 15 -1 15 5 0 8 15 9 43 5 50 -8 73 9 62 44
-4 13 -1 22 9 26 9 3 14 10 11 14 -3 5 6 25 19 45 28 41 50 99 44 117 -3 7 -8
-3 -11 -22z"/>
<path d="M6008 9778 c-13 -13 -19 -20 -14 -15 17 12 26 8 26 -13 0 -25 30 -41
53 -29 23 13 21 35 -4 53 -20 13 -20 14 -2 19 12 3 10 5 -9 6 -16 1 -37 -8
-50 -21z"/>
<path d="M3382 9700 c0 -14 2 -19 5 -12 2 6 2 18 0 25 -3 6 -5 1 -5 -13z"/>
<path d="M3853 9690 c-27 -11 -46 -44 -40 -73 4 -21 4 -21 6 -1 1 17 6 20 28
16 29 -5 53 17 53 50 0 20 -13 22 -47 8z"/>
<path d="M9542 9670 c0 -19 2 -27 5 -17 2 9 2 25 0 35 -3 9 -5 1 -5 -18z"/>
<path d="M3359 9628 c-16 -40 -65 -96 -104 -120 -16 -10 -25 -18 -19 -18 26 0
103 72 124 115 12 25 20 48 17 51 -2 2 -10 -10 -18 -28z"/>
<path d="M5640 9652 c0 -15 -57 -70 -93 -88 -16 -9 -51 -20 -76 -25 l-46 -8
47 3 c26 2 64 12 84 23 40 21 102 88 91 100 -4 3 -7 1 -7 -5z"/>
<path d="M4335 9610 c10 -11 20 -20 23 -20 3 0 -3 9 -13 20 -10 11 -20 20 -23
20 -3 0 3 -9 13 -20z"/>
<path d="M9516 9579 c-53 -152 -250 -239 -406 -180 -27 11 -48 15 -45 11 14
-23 110 -42 184 -38 83 5 121 20 188 75 41 33 109 149 101 173 -2 6 -11 -13
-22 -41z"/>
<path d="M3929 9590 c-15 -17 -23 -30 -19 -30 7 0 32 26 44 48 11 19 3 14 -25
-18z"/>
<path d="M3145 9480 l-50 -7 45 -1 c25 0 54 3 65 8 23 10 12 10 -60 0z"/>
<path d="M4953 9463 c-7 -2 -13 -9 -13 -14 0 -6 4 -8 9 -5 5 3 8 -2 7 -11 -1
-21 31 -30 48 -13 8 8 7 15 -7 25 -13 10 -15 14 -5 18 7 3 4 5 -7 5 -11 0 -26
-2 -32 -5z"/>
<path d="M4636 9390 c-60 -18 -107 -87 -105 -152 2 -32 2 -32 8 6 8 54 30 65
69 36 57 -42 116 4 78 62 -17 26 -11 43 19 51 14 3 10 5 -10 5 -16 0 -43 -4
-59 -8z"/>
<path d="M2672 9360 c-22 -9 -42 -46 -42 -78 0 -13 2 -14 9 -4 6 10 19 11 45
7 44 -9 66 6 66 45 0 16 6 31 13 33 6 3 -6 5 -28 6 -22 0 -50 -4 -63 -9z"/>
<path d="M9144 9316 c-37 -16 -64 -52 -63 -81 1 -16 2 -17 6 -3 4 16 7 17 35
2 41 -21 72 -11 92 31 19 39 19 39 49 23 20 -10 21 -10 8 5 -7 9 -30 21 -50
27 -44 12 -39 12 -77 -4z"/>
<path d="M6801 9267 c-13 -28 -48 -75 -77 -105 -158 -158 -403 -157 -565 2
-51 49 -52 50 -21 9 39 -50 105 -95 181 -124 46 -17 72 -20 146 -17 113 5 183
35 258 110 47 47 117 162 106 173 -3 2 -15 -19 -28 -48z"/>
<path d="M5197 9299 c-33 -9 -57 -27 -57 -42 0 -7 4 -7 12 1 14 14 32 16 24 3
-20 -32 39 -57 63 -27 10 12 8 19 -8 35 -13 13 -16 21 -8 24 24 9 1 14 -26 6z"/>
<path d="M2825 9223 c-11 -14 -36 -28 -55 -33 -32 -7 -32 -8 -8 -9 26 -1 100
51 88 62 -3 2 -14 -7 -25 -20z"/>
<path d="M4821 9228 c-1 -26 -52 -79 -96 -100 -34 -17 -36 -18 -10 -13 17 3
41 14 55 24 31 22 64 76 57 93 -4 8 -6 7 -6 -4z"/>
<path d="M9301 9207 c0 -10 -14 -32 -30 -48 -24 -24 -38 -29 -76 -29 -25 0
-55 5 -66 10 -10 6 -19 8 -19 6 0 -11 60 -36 87 -36 55 0 120 58 110 98 -4 15
-5 15 -6 -1z"/>
<path d="M3955 9132 c-51 -4 -115 -47 -137 -92 -11 -20 -17 -54 -16 -80 l1
-45 4 40 c4 37 35 85 55 85 5 0 15 -15 23 -34 15 -36 31 -46 74 -46 60 0 80
65 34 112 -30 31 -28 37 19 47 31 7 31 8 8 12 -14 2 -43 3 -65 1z"/>
<path d="M7259 9093 c-8 -9 -9 -14 -3 -10 7 4 14 -2 17 -13 3 -11 12 -20 21
-20 20 0 35 32 18 38 -7 2 -10 8 -6 13 10 16 -33 9 -47 -8z"/>
<path d="M1933 9070 c-18 -11 -33 -25 -33 -32 0 -9 3 -9 12 0 15 15 32 16 23
2 -9 -15 13 -40 35 -40 10 0 24 7 31 16 11 14 10 19 -10 35 l-23 19 23 9 24
10 -25 0 c-14 1 -40 -8 -57 -19z"/>
<path d="M4176 8898 c-18 -44 -65 -86 -112 -103 -24 -9 -31 -14 -18 -15 26 0
109 53 123 79 16 29 31 71 26 71 -3 0 -11 -15 -19 -32z"/>
<path d="M4238 8909 c-10 -5 -23 -20 -29 -32 -12 -22 -12 -22 10 -3 21 19 21
19 21 -1 0 -26 25 -47 45 -39 24 9 29 35 10 56 -16 18 -16 19 12 23 22 3 19 4
-12 5 -22 1 -48 -3 -57 -9z"/>
<path d="M8290 8893 c-23 -9 -60 -45 -76 -75 -15 -28 -20 -73 -6 -51 6 9 18 7
51 -8 24 -10 51 -19 61 -19 23 0 60 46 60 74 0 12 6 31 14 41 13 18 14 18 42
0 26 -16 27 -16 15 -1 -32 38 -110 57 -161 39z"/>
<path d="M3400 8863 c-30 -11 -60 -47 -60 -72 0 -17 3 -22 8 -13 7 9 16 10 40
1 38 -13 62 0 62 35 0 12 5 27 12 34 9 9 8 12 -4 12 -9 0 -22 2 -30 4 -7 3
-20 2 -28 -1z"/>
<path d="M3948 8783 c6 -2 18 -2 25 0 6 3 1 5 -13 5 -14 0 -19 -2 -12 -5z"/>
<path d="M5405 8775 c-22 -8 -41 -15 -41 -15 -1 0 -13 -17 -26 -38 -25 -36
-52 -125 -29 -92 6 8 11 23 11 33 0 24 52 23 75 -3 28 -31 76 -25 96 12 8 14
5 26 -10 51 -22 37 -17 53 19 60 17 3 12 5 -15 5 -22 1 -58 -5 -80 -13z"/>
<path d="M3525 8727 c-13 -20 -35 -36 -60 -44 -38 -13 -38 -13 -6 -8 36 5 66
26 83 58 16 31 4 27 -17 -6z"/>
<path d="M4125 8710 c-71 -34 -126 -100 -124 -150 l0 -25 10 25 c14 35 49 70
71 70 14 0 18 -8 18 -33 0 -72 92 -107 146 -56 45 42 24 108 -41 129 l-36 12
24 18 c12 10 34 20 47 23 14 2 3 5 -25 5 -31 1 -65 -6 -90 -18z"/>
<path d="M8482 8676 c-25 -69 -113 -111 -184 -87 -30 10 -31 9 -14 -4 30 -23
107 -19 146 8 38 25 73 78 68 103 -2 11 -8 3 -16 -20z"/>
<path d="M5631 8615 c-2 -47 -89 -119 -164 -135 -39 -8 -38 -9 17 -5 50 4 61
1 75 -17 13 -15 23 -19 39 -14 23 8 30 40 12 51 -18 11 -11 25 13 26 16 1 18
2 5 6 -20 5 -23 18 -8 28 18 11 28 40 19 60 -8 20 -8 20 -8 0z"/>
<path d="M11303 8610 c-18 -11 -33 -25 -33 -32 0 -9 3 -9 12 0 15 15 32 16 23
2 -9 -15 13 -40 35 -40 10 0 24 7 31 16 11 14 10 19 -10 35 l-23 19 23 9 24
10 -25 0 c-14 1 -40 -8 -57 -19z"/>
<path d="M5657 8613 c-10 -16 13 -53 32 -53 27 0 34 15 19 40 -13 20 -43 27
-51 13z"/>
<path d="M2863 8539 c-26 -9 -43 -39 -42 -71 1 -16 3 -18 6 -6 3 10 16 18 36
20 23 2 33 9 36 23 2 11 8 23 13 26 16 10 -26 17 -49 8z"/>
<path d="M4466 8471 c-12 -78 -97 -147 -206 -168 l-65 -13 59 5 c74 7 150 46
187 99 27 36 48 101 37 112 -3 2 -8 -13 -12 -35z"/>
<path d="M9468 8488 c-13 -13 -19 -20 -14 -15 17 12 24 8 19 -12 -3 -13 2 -23
15 -30 42 -22 76 17 41 47 -20 17 -20 17 8 23 26 6 25 7 -9 8 -26 1 -44 -6
-60 -21z"/>
<path d="M4941 8447 c-65 -27 -110 -77 -116 -133 -5 -38 -5 -38 5 -8 11 36 43
49 62 26 22 -25 76 -44 97 -33 38 21 40 61 6 94 -36 33 -25 57 28 57 46 0 46
4 2 13 -19 4 -50 -2 -84 -16z"/>
<path d="M7578 8457 c-85 -24 -169 -101 -193 -177 -7 -23 -7 -23 10 -6 23 22
64 38 82 32 7 -3 13 -15 13 -26 0 -61 55 -120 112 -120 40 0 86 36 97 75 11
42 3 70 -34 119 -14 18 -25 36 -25 39 0 13 61 37 95 37 20 0 50 -7 68 -15 30
-15 31 -15 12 1 -54 44 -159 62 -237 41z"/>
<path d="M2930 8436 c-6 -8 -26 -17 -43 -19 l-32 -4 31 -1 c20 -1 37 5 49 18
10 11 16 20 13 20 -3 0 -11 -6 -18 -14z"/>
<path d="M9403 8379 c-35 -7 -63 -25 -63 -41 0 -6 7 -5 15 2 13 10 15 9 15 -8
0 -28 36 -48 56 -31 19 16 18 45 -3 55 -14 6 -10 9 17 13 27 5 30 8 15 12 -11
3 -35 2 -52 -2z"/>
<path d="M9559 8366 c-56 -22 -104 -66 -141 -127 -10 -16 -28 -31 -42 -35 -13
-3 -35 -18 -47 -32 -13 -15 -17 -21 -9 -14 19 16 30 15 30 -4 0 -9 8 -27 19
-40 l18 -23 22 23 c11 12 21 32 21 44 0 39 46 23 66 -22 7 -17 13 -23 14 -14
0 9 -11 30 -25 46 l-24 29 24 11 c22 10 24 8 31 -21 15 -69 64 -105 127 -93
81 15 107 104 54 181 -26 38 -26 40 -8 58 30 31 89 32 146 3 l50 -25 -30 25
c-69 56 -201 70 -296 30z m-69 -130 c-8 -8 -26 -17 -40 -20 -19 -5 -17 -2 10
13 42 24 49 26 30 7z"/>
<path d="M793 8323 c-7 -2 -13 -9 -13 -14 0 -6 4 -8 9 -5 5 3 8 -2 7 -11 -1
-21 31 -30 48 -13 8 8 7 15 -7 25 -13 10 -15 14 -5 18 7 3 4 5 -7 5 -11 0 -26
-2 -32 -5z"/>
<path d="M5172 8290 c0 -14 2 -19 5 -12 2 6 2 18 0 25 -3 6 -5 1 -5 -13z"/>
<path d="M11189 8273 c-8 -9 -9 -14 -3 -10 7 4 14 -2 17 -13 3 -11 12 -20 21
-20 20 0 35 32 18 38 -7 2 -10 8 -6 13 10 16 -33 9 -47 -8z"/>
<path d="M4821 8254 c0 -11 3 -14 6 -6 3 7 2 16 -1 19 -3 4 -6 -2 -5 -13z"/>
<path d="M2320 8209 c-14 -6 -20 -13 -14 -17 6 -4 13 -15 17 -24 7 -20 15 -22
37 -8 12 8 13 13 3 29 -10 15 -10 21 0 24 8 4 7 5 -3 6 -8 0 -26 -5 -40 -10z"/>
<path d="M5119 8184 c-31 -34 -80 -56 -144 -64 l-50 -7 45 -1 c54 -2 115 24
154 67 17 17 27 31 25 31 -3 0 -16 -12 -30 -26z"/>
<path d="M7950 8117 c0 -38 -58 -143 -97 -178 -59 -51 -118 -73 -198 -73 -42
0 -85 7 -108 17 -21 9 -35 12 -32 7 3 -5 31 -17 62 -26 141 -41 285 22 353
155 20 40 38 121 26 121 -3 0 -6 -11 -6 -23z"/>
<path d="M9992 8075 c0 -16 2 -22 5 -12 2 9 2 23 0 30 -3 6 -5 -1 -5 -18z"/>
<path d="M6045 8070 c-26 -10 -57 -44 -32 -34 11 4 16 -1 19 -18 2 -18 9 -23
33 -23 35 0 47 31 20 51 -15 11 -15 13 2 23 17 10 17 10 -2 10 -11 0 -29 -4
-40 -9z"/>
<path d="M3285 8053 c-70 -36 -106 -89 -103 -150 l1 -38 4 35 c7 59 60 82 81
35 28 -61 132 -49 132 15 0 20 -9 39 -25 54 -32 29 -24 54 18 59 19 2 10 4
-23 5 -33 1 -67 -5 -85 -15z"/>
<path d="M9981 8027 c0 -10 -10 -36 -21 -58 -82 -159 -274 -220 -427 -135 -24
14 -41 21 -38 15 4 -5 30 -21 58 -36 72 -37 187 -39 264 -4 84 38 184 166 170
219 -4 15 -5 15 -6 -1z"/>
<path d="M5864 8023 c-12 -2 -32 -16 -45 -31 -13 -15 -17 -21 -9 -14 20 17 28
15 32 -10 2 -18 10 -23 33 -23 34 0 48 32 20 47 -13 8 -14 13 -4 24 6 8 8 13
3 13 -5 -1 -19 -4 -30 -6z"/>
<path d="M9388 8023 c6 -2 18 -2 25 0 6 3 1 5 -13 5 -14 0 -19 -2 -12 -5z"/>
<path d="M3985 7929 c-39 -11 -55 -35 -54 -78 1 -24 3 -28 6 -13 4 19 10 22
39 20 36 -2 54 12 54 44 0 9 6 18 12 20 25 9 -28 14 -57 7z"/>
<path d="M7353 7928 c-13 -6 -23 -15 -23 -20 0 -5 4 -7 9 -4 5 3 11 -3 14 -14
6 -23 35 -27 43 -5 4 8 1 21 -5 29 -6 7 -8 16 -4 19 10 10 -9 7 -34 -5z"/>
<path d="M3572 7885 c0 -16 2 -22 5 -12 2 9 2 23 0 30 -3 6 -5 -1 -5 -18z"/>
<path d="M5965 7884 c-28 -26 -28 -47 0 -24 12 10 15 10 15 -3 0 -22 26 -39
50 -32 25 8 26 32 3 58 -18 19 -17 19 27 13 31 -4 39 -3 25 3 -40 19 -91 12
-120 -15z"/>
<path d="M6596 7889 c-14 -11 -26 -25 -26 -31 0 -6 9 -3 19 6 19 17 20 17 23
-11 2 -22 8 -28 27 -28 33 0 52 32 29 49 -24 17 -23 24 5 29 14 3 9 5 -14 6
-23 1 -46 -6 -63 -20z"/>
<path d="M6973 7893 c-10 -10 -13 -14 -6 -9 9 6 13 2 13 -13 0 -14 6 -21 19
-21 28 0 37 21 17 36 -16 12 -16 13 1 17 15 4 15 5 -3 6 -12 0 -30 -7 -41 -16z"/>
<path d="M8030 7835 c-72 -21 -128 -54 -174 -106 -37 -40 -83 -126 -73 -136 3
-2 8 4 12 14 10 28 69 72 105 80 l33 6 -6 -45 c-13 -98 36 -168 119 -168 83 0
134 47 134 125 0 52 -24 91 -75 120 -52 31 -50 48 8 69 87 32 147 25 220 -26
30 -21 31 -21 14 -1 -53 61 -216 96 -317 68z"/>
<path d="M4083 7812 c-12 -16 -36 -34 -55 -40 -31 -11 -31 -11 -3 -6 32 6 61
27 76 56 14 27 5 22 -18 -10z"/>
<path d="M6399 7803 c-13 -16 -17 -22 -9 -15 19 16 33 15 26 -3 -5 -14 18 -45
34 -45 11 0 40 29 40 40 0 5 -9 15 -21 24 -20 13 -20 14 -2 19 11 3 6 5 -13 6
-22 1 -37 -7 -55 -26z"/>
<path d="M3518 7774 c-14 -15 -50 -35 -79 -45 -57 -19 -49 -26 11 -9 29 8 118
80 99 80 -2 0 -16 -12 -31 -26z"/>
<path d="M4920 7793 c-66 -21 -103 -71 -97 -130 l4 -38 1 38 c2 30 6 37 23 37
11 0 32 -9 46 -20 33 -26 65 -25 88 0 16 18 17 25 7 54 -17 45 -15 54 11 59
12 2 2 5 -23 5 -25 0 -52 -2 -60 -5z"/>
<path d="M6655 7731 c-74 -19 -129 -56 -157 -107 -15 -27 -27 -56 -27 -64 0
-8 7 0 15 18 10 22 21 32 37 32 30 0 41 -9 61 -47 49 -96 171 -51 148 54 -11
50 -5 71 21 79 30 11 56 6 97 -17 l35 -20 -28 25 c-40 37 -145 61 -202 47z"/>
<path d="M8408 7726 c-10 -7 -18 -21 -18 -31 0 -10 3 -15 7 -12 3 4 12 2 19
-4 16 -13 54 -2 54 16 0 43 -28 57 -62 31z"/>
<path d="M5131 7633 c-1 -24 -43 -78 -74 -95 -11 -6 -43 -14 -71 -18 l-51 -8
45 -1 c78 -1 171 73 157 126 -4 14 -5 14 -6 -4z"/>
<path d="M8508 7564 c-16 -8 -28 -23 -28 -34 0 -26 9 -25 20 3 6 15 9 17 9 6
1 -21 31 -33 45 -19 7 7 7 16 -1 30 -10 14 -10 20 0 23 8 4 7 6 -3 6 -8 0 -27
-7 -42 -15z"/>
<path d="M5154 7534 c-10 -8 -13 -13 -6 -9 8 4 12 -1 12 -14 0 -14 6 -21 20
-21 23 0 41 31 22 38 -7 2 -10 8 -6 13 9 15 -21 10 -42 -7z"/>
<path d="M8493 7460 c0 -25 2 -35 4 -22 2 12 2 32 0 45 -2 12 -4 2 -4 -23z"/>
<path d="M6988 7476 c-16 -8 -28 -12 -28 -8 -1 4 -8 -9 -16 -28 -20 -45 -69
-96 -119 -123 -56 -30 -173 -31 -233 -1 -23 12 -38 16 -32 9 18 -21 99 -45
154 -45 103 0 164 33 228 124 38 54 42 57 49 38 10 -25 37 -29 45 -7 4 8 1 22
-5 29 -9 11 -9 15 1 19 9 4 9 6 -2 6 -8 1 -27 -6 -42 -13z"/>
<path d="M8564 7430 c-12 -5 -25 -14 -30 -21 -4 -7 -3 -10 3 -6 6 4 13 -2 16
-13 6 -23 35 -27 43 -5 4 8 1 22 -5 29 -9 11 -9 15 1 19 7 3 9 5 3 6 -5 0 -20
-4 -31 -9z"/>
<path d="M2810 7411 c-73 -23 -128 -59 -178 -116 -43 -49 -76 -129 -69 -167 3
-17 5 -14 6 10 1 25 11 43 43 72 48 47 78 52 78 15 0 -112 154 -145 229 -49
46 59 7 135 -77 149 -23 4 -44 10 -46 13 -2 4 16 22 41 41 38 30 56 36 116 41
l72 7 -80 1 c-51 1 -100 -5 -135 -17z"/>
<path d="M3038 7413 c7 -3 16 -2 19 1 4 3 -2 6 -13 5 -11 0 -14 -3 -6 -6z"/>
<path d="M4333 7395 c-33 -14 -49 -47 -40 -82 4 -15 5 -14 6 4 1 19 5 22 29
17 32 -6 47 7 54 49 6 31 -2 33 -49 12z"/>
<path d="M8481 7397 c-2 -38 -61 -135 -110 -180 -80 -75 -126 -92 -251 -92
-99 0 -108 2 -163 32 -32 18 -54 26 -48 19 6 -7 39 -26 74 -42 52 -24 75 -28
147 -29 75 0 93 4 152 32 36 17 85 51 109 75 46 47 103 157 96 185 -4 17 -5
17 -6 0z"/>
<path d="M9204 7340 c-30 -12 -74 -68 -74 -93 0 -16 3 -18 9 -9 7 12 14 11 40
-3 52 -26 83 -17 106 32 26 54 29 57 55 43 17 -9 21 -9 15 0 -19 31 -106 49
-151 30z"/>
<path d="M4407 7275 c-15 -14 -24 -25 -19 -25 5 0 19 11 32 25 30 32 23 32
-13 0z"/>
<path d="M7425 7250 c-24 -9 -57 -44 -34 -35 8 3 18 -4 24 -17 13 -30 50 -35
64 -9 9 16 7 23 -11 35 l-22 15 25 10 24 10 -25 0 c-14 0 -34 -4 -45 -9z"/>
<path d="M8494 7250 c-12 -5 -25 -13 -28 -19 -4 -6 -1 -9 7 -5 9 3 16 -3 20
-15 6 -23 14 -26 37 -11 12 8 13 13 3 29 -10 15 -10 21 0 24 8 4 7 5 -3 6 -8
0 -25 -4 -36 -9z"/>
<path d="M11349 7240 c-19 -16 -20 -19 -5 -13 12 4 17 3 13 -4 -4 -6 0 -16 8
-23 12 -10 18 -10 30 0 14 12 14 15 0 30 -13 14 -13 19 -3 23 9 4 8 6 -3 6 -9
1 -27 -8 -40 -19z"/>
<path d="M3260 7181 c0 -56 -33 -132 -79 -183 -81 -91 -157 -126 -296 -138
l-90 -8 95 2 c83 1 103 6 162 33 124 58 204 158 215 269 3 30 3 54 -1 54 -3 0
-6 -13 -6 -29z"/>
<path d="M9387 7168 c-9 -34 -65 -77 -109 -84 -20 -4 -49 0 -71 10 -44 18 -49
13 -7 -9 37 -19 93 -19 130 0 35 18 73 69 68 93 -3 12 -6 10 -11 -10z"/>
<path d="M2044 7165 c-11 -8 -14 -15 -6 -15 6 0 12 -7 12 -15 0 -17 35 -21 45
-5 4 6 2 17 -5 24 -8 11 -8 15 2 19 7 3 4 6 -8 6 -11 1 -29 -6 -40 -14z"/>
<path d="M5373 7090 c-56 -11 -114 -42 -153 -82 -34 -33 -70 -101 -69 -128 0
-8 6 -1 12 15 23 59 33 67 73 69 37 1 38 0 52 -47 23 -83 101 -110 159 -55 28
26 31 84 7 130 -16 31 -16 32 11 55 33 29 76 25 142 -12 24 -13 41 -20 38 -15
-12 20 -92 58 -143 69 -59 12 -69 12 -129 1z"/>
<path d="M5721 6755 c-7 -21 -29 -55 -49 -77 -98 -109 -261 -135 -390 -63 -24
14 -39 19 -33 11 6 -8 35 -24 64 -37 41 -19 70 -24 137 -24 74 0 92 4 145 30
33 17 62 34 63 38 2 4 19 5 37 1 24 -4 34 -2 38 10 3 8 2 18 -3 21 -5 3 -7 12
-3 20 3 8 0 15 -5 15 -7 0 -5 14 4 36 8 20 14 40 12 46 -2 5 -9 -7 -17 -27z"/>
<path d="M789 6600 c-19 -16 -20 -19 -5 -13 12 4 17 3 13 -4 -4 -6 0 -16 8
-23 12 -10 18 -10 30 0 14 12 14 15 0 30 -13 14 -13 19 -3 23 9 4 8 6 -3 6 -9
1 -27 -8 -40 -19z"/>
<path d="M7790 6541 c-48 -15 -105 -49 -137 -83 -31 -32 -63 -94 -63 -120 1
-7 7 2 15 20 38 87 116 95 129 13 11 -72 92 -105 149 -61 34 27 42 69 23 115
-21 49 -20 74 2 82 9 4 19 10 22 14 8 11 89 -9 130 -32 l35 -19 -30 25 c-55
46 -196 70 -275 46z"/>
<path d="M8260 6469 c-14 -6 -20 -13 -14 -17 6 -4 13 -15 17 -24 3 -10 13 -18
22 -18 20 0 30 27 16 44 -6 7 -8 16 -4 19 9 10 -7 8 -37 -4z"/>
<path d="M9688 6414 c-30 -16 -58 -62 -57 -91 0 -14 2 -13 9 5 9 22 11 22 40
7 51 -26 82 -17 105 32 l20 41 33 -14 c19 -8 30 -9 26 -3 -22 36 -128 49 -176
23z"/>
<path d="M4438 6304 c-15 -8 -33 -24 -39 -37 -9 -18 -9 -20 2 -9 21 20 37 14
41 -14 4 -34 27 -49 61 -40 39 9 45 45 13 73 -28 24 -26 28 24 36 14 2 3 5
-25 5 -27 1 -62 -5 -77 -14z"/>
<path d="M9885 6273 c-28 -50 -77 -75 -138 -70 -29 2 -43 1 -35 -4 7 -5 33 -9
58 -9 58 0 107 30 126 76 20 48 13 52 -11 7z"/>
<path d="M8177 6235 c-9 -45 -59 -114 -108 -147 -92 -62 -222 -74 -322 -30
-59 26 -61 20 -4 -10 30 -16 65 -23 127 -26 108 -5 183 20 245 83 42 41 81
121 73 147 -3 7 -7 -1 -11 -17z"/>
<path d="M6930 6185 c-82 -25 -148 -99 -164 -180 l-6 -30 11 30 c17 45 28 55
60 55 23 0 32 -7 49 -40 29 -56 62 -76 108 -64 28 7 41 17 55 45 16 33 16 40
2 78 -17 48 -13 63 19 81 30 15 74 6 123 -26 l38 -24 -35 30 c-63 55 -168 73
-260 45z"/>
<path d="M10285 6151 c-11 -5 -29 -19 -40 -32 -11 -13 -13 -18 -5 -11 20 17
28 15 32 -10 2 -18 10 -23 33 -23 35 0 47 29 19 49 -16 12 -16 14 2 24 19 11
18 11 -1 11 -11 0 -29 -4 -40 -8z"/>
<path d="M4619 6113 c-13 -16 -12 -17 4 -4 16 13 21 21 13 21 -2 0 -10 -8 -17
-17z"/>
<path d="M7660 6106 c0 -2 8 -10 18 -17 15 -13 16 -12 3 4 -13 16 -21 21 -21
13z"/>
<path d="M4580 6090 c-9 -6 -10 -10 -3 -10 6 0 15 5 18 10 8 12 4 12 -15 0z"/>
<path d="M5488 6074 c-15 -8 -33 -24 -39 -37 -9 -18 -9 -20 2 -9 21 20 37 14
41 -14 4 -34 27 -49 61 -40 39 9 45 45 13 73 -28 24 -26 28 24 36 14 2 3 5
-25 5 -27 1 -62 -5 -77 -14z"/>
<path d="M8748 6019 c-68 -19 -170 -133 -154 -172 2 -7 5 -5 5 4 2 28 81 36
81 9 0 -5 12 -22 26 -39 20 -24 34 -31 63 -31 72 0 104 51 80 131 -12 39 -12
43 11 61 28 22 60 18 105 -14 22 -16 26 -17 16 -4 -40 49 -157 76 -233 55z"/>
<path d="M3132 5974 c-56 -28 -98 -84 -106 -140 -2 -16 -1 -23 1 -16 7 19 34
14 88 -18 28 -16 60 -30 73 -30 39 0 78 48 86 108 4 28 11 52 17 52 6 0 8 4 5
9 -11 17 27 21 50 6 13 -9 24 -11 24 -6 0 18 -103 61 -145 61 -24 0 -63 -11
-93 -26z"/>
<path d="M7292 5930 c0 -14 2 -19 5 -12 2 6 2 18 0 25 -3 6 -5 1 -5 -13z"/>
<path d="M5669 5883 c-13 -16 -12 -17 4 -4 9 7 17 15 17 17 0 8 -8 3 -21 -13z"/>
<path d="M7273 5868 c-7 -18 -30 -51 -50 -72 -86 -89 -218 -112 -326 -58 -31
16 -52 23 -47 16 6 -6 34 -22 63 -35 115 -50 262 -17 329 75 32 44 51 83 46
98 -2 5 -9 -6 -15 -24z"/>
<path d="M1853 5876 c-143 -35 -279 -145 -322 -262 -12 -31 -20 -62 -18 -68 2
-6 7 3 11 21 4 17 29 55 55 83 46 50 51 52 102 54 l54 1 5 -75 c7 -87 29 -128
84 -154 89 -42 193 9 212 103 10 51 -5 98 -46 147 -22 25 -40 48 -40 51 0 12
65 64 88 70 13 3 42 2 65 -1 23 -4 50 -7 59 -7 10 0 20 -4 23 -10 4 -5 16 -9
27 -9 20 0 72 -27 114 -59 11 -9 5 -2 -12 15 -99 92 -307 137 -461 100z"/>
<path d="M5693 5813 c-7 -2 -13 -9 -13 -14 0 -6 5 -7 10 -4 6 3 10 -3 10 -14
0 -14 6 -21 19 -21 27 0 34 15 19 40 -13 20 -22 23 -45 13z"/>
<path d="M3442 5766 c-5 -83 -54 -161 -123 -196 -56 -29 -142 -27 -198 5 -24
14 -38 19 -32 11 44 -53 170 -72 240 -36 73 37 126 130 118 206 -3 29 -4 32
-5 10z"/>
<path d="M5528 5778 c-16 -5 -28 -14 -28 -19 0 -6 4 -8 9 -5 5 3 11 -3 14 -14
3 -11 12 -20 21 -20 21 0 33 30 16 40 -7 4 -9 13 -6 19 4 6 6 11 4 10 -2 0
-15 -5 -30 -11z"/>
<path d="M9056 5741 c-22 -142 -211 -237 -339 -172 -25 13 -34 15 -26 5 12
-15 100 -44 134 -44 44 0 126 32 161 62 19 17 44 48 54 69 19 36 38 119 28
119 -3 0 -8 -17 -12 -39z"/>
<path d="M7659 5740 c-17 -14 -19 -18 -6 -14 11 4 17 1 17 -10 0 -18 35 -22
45 -6 4 6 2 17 -5 24 -8 11 -8 15 2 19 7 3 3 6 -8 6 -12 1 -32 -8 -45 -19z"/>
<path d="M4279 5663 c-8 -9 -9 -14 -3 -10 7 4 14 -2 17 -13 3 -11 12 -20 21
-20 20 0 35 32 18 38 -7 2 -10 8 -6 13 10 16 -33 9 -47 -8z"/>
<path d="M10122 5432 c-58 -21 -116 -63 -140 -102 -15 -24 -14 -24 15 3 23 21
44 30 87 34 47 5 56 3 56 -10 0 -9 -4 -19 -10 -22 -21 -13 -11 -82 16 -114 48
-57 161 -62 199 -8 29 41 19 85 -29 133 -24 25 -40 46 -36 49 4 2 32 7 62 11
66 8 121 -13 189 -71 34 -29 32 -25 -8 13 -70 67 -140 94 -258 99 -70 3 -102
-1 -143 -15z"/>
<path d="M2471 5418 c-2 -48 -40 -132 -84 -188 -92 -117 -234 -182 -397 -183
-136 -1 -239 32 -340 110 l-45 35 45 -41 c158 -143 441 -166 625 -50 65 40
109 83 144 139 36 57 64 141 58 177 l-4 28 -2 -27z"/>
<path d="M11738 5384 c75 -28 181 -151 233 -272 20 -46 21 -91 4 -172 -2 -14
2 -5 11 20 22 65 13 176 -21 245 -46 95 -143 173 -235 189 -32 5 -32 5 8 -10z"/>
<path d="M4929 5359 c-13 -11 -19 -18 -13 -15 7 3 14 -3 17 -14 6 -23 35 -27
43 -5 4 8 1 21 -5 29 -6 7 -8 16 -4 19 17 17 -18 5 -38 -14z"/>
<path d="M6305 5343 c-11 -2 -31 -13 -45 -24 -21 -17 -22 -19 -3 -10 34 17 44
13 37 -13 -10 -42 45 -72 85 -47 15 10 8 61 -9 61 -6 0 -10 5 -10 10 0 13 36
13 62 -1 14 -7 18 -8 14 0 -7 11 -72 32 -96 30 -8 -1 -24 -4 -35 -6z"/>
<path d="M11673 5227 c-32 -30 -36 -39 -35 -82 1 -82 52 -129 132 -121 35 3
51 11 77 40 38 41 43 82 15 136 -21 42 -53 60 -110 60 -34 0 -49 -6 -79 -33z"/>
<path d="M4001 5142 c-19 -9 -41 -28 -50 -42 -15 -25 -15 -25 5 -7 28 23 34
22 34 -8 0 -15 9 -31 25 -41 23 -15 27 -15 50 0 30 20 32 51 5 68 -27 17 -25
24 8 36 l27 10 -35 1 c-19 1 -50 -7 -69 -17z"/>
<path d="M11302 5105 c0 -16 2 -22 5 -12 2 9 2 23 0 30 -3 6 -5 -1 -5 -18z"/>
<path d="M10615 5041 c-10 -31 -53 -80 -95 -106 -119 -75 -315 -70 -434 11
-21 15 -36 22 -32 15 11 -18 93 -62 144 -77 61 -19 184 -19 243 -1 67 21 135
71 165 123 15 25 24 47 21 50 -3 3 -8 -4 -12 -15z"/>
<path d="M11302 4995 c0 -16 2 -22 5 -12 2 9 2 23 0 30 -3 6 -5 -1 -5 -18z"/>
<path d="M11316 4940 c12 -48 22 -66 61 -115 39 -49 151 -125 183 -125 8 1 0
7 -19 15 -99 43 -166 109 -211 207 -11 24 -17 32 -14 18z"/>
<path d="M8789 4910 c-19 -16 -20 -19 -5 -13 12 4 17 3 13 -4 -4 -6 0 -16 9
-24 12 -10 18 -10 30 3 14 14 14 17 0 31 -15 14 -14 16 2 20 13 4 12 5 -4 6
-12 0 -32 -8 -45 -19z"/>
<path d="M7877 4905 c-21 -8 -50 -24 -64 -35 -31 -24 -73 -79 -73 -94 0 -6 6
-4 13 5 15 20 77 52 85 44 3 -3 5 -23 3 -44 -2 -32 3 -42 29 -65 36 -30 68
-33 110 -11 54 28 54 97 0 133 -19 13 -36 27 -38 31 -4 11 68 42 87 37 9 -2
30 -7 46 -10 l30 -5 -30 14 c-38 18 -149 18 -198 0z"/>
<path d="M11956 4893 c-6 -14 -5 -15 5 -6 7 7 10 15 7 18 -3 3 -9 -2 -12 -12z"/>
<path d="M6030 4855 c-172 -42 -313 -153 -391 -307 -28 -54 -41 -105 -17 -63
32 55 179 148 218 138 17 -5 18 -12 13 -78 -7 -94 7 -134 63 -184 138 -121
354 -35 354 141 0 77 -39 134 -123 178 -34 19 -64 37 -65 42 -2 4 -8 6 -13 2
-5 -3 -9 -1 -9 4 0 18 114 82 146 82 8 0 14 4 14 8 0 10 111 9 155 -1 17 -4
39 -9 50 -11 36 -7 76 -26 123 -57 43 -28 44 -28 17 -4 -40 35 -155 91 -230
110 -72 18 -229 18 -305 0z"/>
<path d="M3034 4729 c-16 -5 -41 -20 -54 -34 l-25 -26 28 10 c25 10 28 9 22
-8 -3 -11 2 -28 14 -42 16 -20 23 -22 47 -14 37 13 45 58 15 77 -27 16 -27 28
-1 28 11 0 20 5 20 10 0 12 -23 12 -66 -1z"/>
<path d="M3118 4723 c7 -3 16 -2 19 1 4 3 -2 6 -13 5 -11 0 -14 -3 -6 -6z"/>
<path d="M11618 4693 c12 -2 32 -2 45 0 12 2 2 4 -23 4 -25 0 -35 -2 -22 -4z"/>
<path d="M8203 4575 c-29 -43 -90 -85 -151 -101 -31 -8 -38 -13 -22 -13 41 -1
122 43 163 87 20 23 37 47 37 52 0 15 -3 12 -27 -25z"/>
<path d="M3179 4523 l-24 -28 28 24 c25 23 32 31 24 31 -2 0 -14 -12 -28 -27z"/>
<path d="M7918 4463 c6 -2 18 -2 25 0 6 3 1 5 -13 5 -14 0 -19 -2 -12 -5z"/>
<path d="M5601 4444 c0 -11 3 -14 6 -6 3 7 2 16 -1 19 -3 4 -6 -2 -5 -13z"/>
<path d="M7978 4453 c7 -3 16 -2 19 1 4 3 -2 6 -13 5 -11 0 -14 -3 -6 -6z"/>
<path d="M4923 4430 c-41 -9 -79 -34 -93 -61 -11 -20 -11 -20 14 -4 24 16 25
16 28 -12 3 -30 23 -39 63 -29 43 11 42 61 -2 72 -28 7 -23 15 20 31 36 13 19
15 -30 3z"/>
<path d="M5591 4404 c0 -11 3 -14 6 -6 3 7 2 16 -1 19 -3 4 -6 -2 -5 -13z"/>
<path d="M9707 4378 c46 -15 52 -56 11 -71 -9 -3 -25 -18 -34 -33 -16 -23 -16
-29 -3 -52 21 -37 50 -44 91 -22 59 31 86 -10 57 -87 -8 -22 -8 -26 2 -16 18
18 24 124 10 166 -7 20 -22 48 -33 63 -22 27 -91 64 -118 63 -8 -1 -1 -6 17
-11z"/>
<path d="M6787 4298 c-17 -153 -75 -268 -185 -370 -112 -103 -257 -158 -422
-159 -140 -1 -268 38 -380 118 l-35 24 35 -31 c41 -37 176 -103 240 -118 125
-29 248 -23 367 17 l53 18 -6 -21 c-5 -17 -4 -19 7 -8 18 17 26 15 32 -8 3
-14 14 -20 31 -20 31 0 44 24 28 51 -9 15 -8 20 6 28 16 10 16 10 0 11 -27 0
-21 13 18 39 58 40 131 128 164 197 36 75 62 188 58 253 -3 44 -3 42 -11 -21z"/>
<path d="M354 4320 c-12 -5 -25 -13 -28 -19 -4 -6 -1 -9 7 -5 9 3 16 -3 20
-15 3 -12 12 -21 21 -21 21 0 33 30 16 40 -7 4 -9 13 -6 19 8 13 0 13 -30 1z"/>
<path d="M8937 4296 c-87 -24 -172 -103 -191 -176 -5 -22 -5 -23 4 -5 13 23
73 65 95 65 12 0 15 -13 15 -56 0 -48 4 -59 29 -85 65 -65 171 -20 171 73 -1
48 -10 63 -57 97 -18 12 -33 26 -33 30 0 5 21 17 46 28 55 24 106 17 169 -24
22 -15 34 -19 26 -10 -23 28 -114 66 -171 72 -32 3 -75 -1 -103 -9z"/>
<path d="M1324 4270 c-63 -14 -114 -71 -113 -125 0 -28 1 -28 9 -7 11 26 16
26 50 7 58 -33 108 -12 142 60 15 33 39 35 73 7 20 -17 20 -17 0 7 -37 43
-103 64 -161 51z"/>
<path d="M9501 4207 c-1 -56 19 -111 57 -150 28 -30 72 -57 93 -57 7 0 -8 10
-32 23 -63 34 -100 91 -109 169 -7 61 -7 61 -9 15z"/>
<path d="M3495 4165 c-5 -2 -22 -6 -38 -9 -60 -14 -151 -134 -134 -178 4 -9 6
-8 6 4 1 15 5 15 34 6 17 -6 42 -18 54 -26 12 -8 38 -14 58 -15 46 -1 73 26
86 84 19 89 37 104 87 72 26 -17 26 -17 13 0 -27 35 -132 73 -166 62z"/>
<path d="M1521 4103 c-1 -28 -45 -79 -84 -100 -36 -18 -115 -20 -146 -4 -11 7
-21 9 -21 7 0 -3 13 -12 30 -21 40 -21 118 -19 160 3 39 21 74 80 67 114 -4
22 -4 22 -6 1z"/>
<path d="M3096 4000 c-29 -9 -76 -47 -76 -62 0 -5 11 -1 24 7 24 16 25 16 28
-17 2 -25 9 -35 31 -42 23 -8 31 -6 48 11 25 25 19 55 -14 70 -22 11 -22 11 6
22 15 6 27 13 27 16 0 7 -41 5 -74 -5z"/>
<path d="M9312 3970 c0 -14 2 -19 5 -12 2 6 2 18 0 25 -3 6 -5 1 -5 -13z"/>
<path d="M9286 3894 c-26 -63 -95 -128 -161 -153 -75 -28 -95 -27 -95 3 0 13
-8 27 -17 32 -15 6 -13 8 12 14 l30 8 -32 1 c-38 1 -80 -16 -88 -37 -4 -12 -3
-13 10 -2 13 10 15 9 15 -9 0 -24 -3 -25 -48 -12 -52 15 -27 -6 30 -25 45 -14
60 -15 116 -5 36 7 82 21 102 31 48 24 125 111 140 156 17 51 8 50 -14 -2z"/>
<path d="M3721 3912 c-2 -33 -35 -93 -68 -123 -69 -64 -146 -76 -229 -34 l-49
24 29 -24 c67 -54 173 -57 243 -6 45 32 87 116 80 159 -3 23 -4 24 -6 4z"/>
<path d="M10970 3843 c-22 -8 -50 -35 -62 -58 -11 -19 -10 -19 9 -2 26 22 42
22 36 -2 -10 -38 56 -68 85 -39 19 19 14 56 -9 69 -25 13 -15 26 26 32 19 2
11 4 -20 5 -27 0 -57 -2 -65 -5z"/>
<path d="M7984 3680 c-12 -5 -25 -13 -28 -19 -5 -7 -1 -8 10 -4 11 4 15 2 11
-4 -4 -6 0 -16 8 -23 21 -17 51 6 34 26 -6 7 -8 18 -4 24 7 12 -2 12 -31 0z"/>
<path d="M11139 3653 c-7 -8 -26 -21 -42 -29 -16 -9 -27 -18 -24 -20 3 -3 23
6 46 20 22 14 42 26 44 26 2 0 1 -16 -1 -35 -4 -32 -2 -36 27 -41 26 -6 31
-10 26 -28 -5 -17 -4 -18 4 -6 26 37 8 90 -39 113 -26 13 -31 13 -41 0z"/>
<path d="M11897 3620 c18 -7 53 -56 53 -73 0 -3 -16 -8 -35 -11 -36 -7 -75
-46 -75 -76 0 -10 9 -29 21 -44 29 -37 74 -35 115 5 l31 30 22 -27 c18 -22 21
-36 16 -73 -4 -33 -2 -40 4 -26 27 58 2 176 -49 233 -34 37 -88 72 -110 71 -9
0 -6 -4 7 -9z"/>
<path d="M10293 3603 c23 -6 22 -32 -4 -59 -24 -26 -28 -72 -8 -85 8 -5 37 -6
66 -3 l52 6 4 -38 c3 -31 4 -26 5 18 1 36 -4 70 -15 93 -17 36 -71 76 -101 74
-15 -1 -15 -2 1 -6z"/>
<path d="M1814 3590 c-12 -5 -25 -13 -28 -19 -5 -7 -1 -8 10 -4 11 4 15 2 11
-4 -4 -6 0 -16 9 -24 12 -10 18 -9 32 5 14 14 15 18 3 25 -7 5 -10 14 -7 20 8
13 0 13 -30 1z"/>
<path d="M11086 3565 c3 -16 13 -37 22 -45 14 -13 15 -13 5 0 -6 8 -15 29 -22
45 l-11 30 6 -30z"/>
<path d="M10121 3504 c0 -11 3 -14 6 -6 3 7 2 16 -1 19 -3 4 -6 -2 -5 -13z"/>
<path d="M11138 3503 c7 -3 16 -2 19 1 4 3 -2 6 -13 5 -11 0 -14 -3 -6 -6z"/>
<path d="M10111 3465 c-2 -46 23 -102 61 -137 21 -21 46 -38 55 -38 10 0 3 9
-17 23 -45 30 -70 67 -86 124 -7 26 -13 39 -13 28z"/>
<path d="M11645 3388 c2 -51 9 -78 29 -113 25 -43 96 -105 119 -105 6 0 -9 12
-31 28 -73 49 -98 97 -116 227 -3 17 -3 0 -1 -37z"/>
<path d="M7528 3280 c-228 -27 -434 -171 -532 -372 -25 -51 -47 -109 -50 -128
-5 -29 -3 -27 13 15 10 28 24 49 30 47 10 -2 15 11 12 31 0 4 5 7 13 7 8 0 28
14 44 30 17 17 37 30 45 30 8 0 25 9 39 20 14 10 42 20 64 22 44 3 42 14 29
-125 -7 -74 -6 -80 24 -142 87 -176 311 -191 426 -27 25 36 30 55 33 115 5
111 -36 185 -136 243 -26 15 -53 33 -59 40 -7 7 -18 14 -25 17 -31 12 130 109
165 99 4 -1 7 3 7 9 0 5 8 9 18 8 9 -1 19 0 22 1 18 6 91 3 93 -4 2 -5 15 -8
30 -8 15 0 27 -4 27 -9 0 -4 9 -6 20 -4 28 5 51 -4 43 -18 -3 -6 -1 -7 5 -3
13 8 58 -13 112 -51 l35 -24 -38 34 c-44 40 -149 97 -222 120 -39 13 -219 42
-220 36 0 -1 -30 -5 -67 -9z"/>
<path d="M10258 3283 c7 -3 16 -2 19 1 4 3 -2 6 -13 5 -11 0 -14 -3 -6 -6z"/>
<path d="M3205 3229 c-19 -17 -35 -36 -35 -43 0 -6 5 -3 11 7 15 26 36 20 42
-13 11 -55 88 -53 95 3 2 18 -3 29 -17 37 -31 16 -25 28 17 33 28 3 23 4 -20
5 -51 2 -61 -1 -93 -29z"/>
<path d="M9318 3230 c29 -12 28 -41 -3 -68 -31 -27 -34 -76 -6 -92 25 -13 68
-13 76 0 10 16 43 12 53 -7 6 -9 6 -29 1 -46 -12 -43 -3 -46 11 -3 12 38 6 93
-17 144 -16 35 -86 82 -119 81 -16 0 -16 -1 4 -9z"/>
<path d="M4439 3221 c-41 -13 -68 -30 -80 -52 -10 -20 -10 -20 15 -4 26 17 26
17 26 -13 0 -47 52 -69 84 -36 21 21 20 41 -4 61 -29 25 -25 33 18 34 33 1 34
2 12 9 -31 10 -39 10 -71 1z"/>
<path d="M4118 3194 c-15 -8 -33 -24 -39 -37 -9 -18 -9 -20 2 -9 21 20 37 14
41 -14 4 -34 27 -49 61 -40 39 9 45 45 13 73 -28 24 -26 28 24 36 14 2 3 5
-25 5 -27 1 -62 -5 -77 -14z"/>
<path d="M11818 3163 c7 -3 16 -2 19 1 4 3 -2 6 -13 5 -11 0 -14 -3 -6 -6z"/>
<path d="M8664 3140 c-26 -10 -54 -48 -53 -70 0 -8 5 -3 10 12 6 14 17 29 26
32 11 5 14 2 9 -10 -14 -36 39 -59 64 -29 10 13 10 19 -4 33 -20 23 -20 29 2
35 11 3 8 5 -8 5 -14 0 -35 -3 -46 -8z"/>
<path d="M9131 3114 c0 -11 3 -14 6 -6 3 7 2 16 -1 19 -3 4 -6 -2 -5 -13z"/>
<path d="M8450 3113 c-21 -8 -70 -55 -70 -67 0 -6 5 -3 11 7 15 26 36 20 42
-13 11 -55 88 -53 95 3 2 18 -3 29 -17 37 -31 16 -25 28 17 33 31 3 29 4 -13
5 -27 0 -57 -2 -65 -5z"/>
<path d="M10842 3099 c34 -13 45 -41 22 -54 -31 -17 -74 -63 -74 -78 0 -8 9
-26 21 -41 28 -35 77 -36 109 -1 13 14 29 25 35 25 20 0 37 -46 31 -81 -4 -25
-4 -29 3 -14 5 11 10 42 10 69 1 72 -36 131 -102 162 -29 13 -59 23 -67 23 -8
0 -3 -5 12 -10z"/>
<path d="M9121 3075 c-2 -64 44 -142 101 -171 41 -21 45 -13 5 10 -46 25 -75
66 -91 128 -8 29 -15 44 -15 33z"/>
<path d="M3399 3053 l-24 -28 28 24 c25 23 32 31 24 31 -2 0 -14 -12 -28 -27z"/>
<path d="M4279 2998 c-41 -30 -48 -49 -10 -28 17 8 21 8 21 -3 0 -22 27 -39
50 -32 24 8 26 32 3 57 -15 17 -15 18 7 18 12 0 38 -9 56 -21 19 -11 34 -18
34 -15 0 11 -50 38 -85 46 -30 7 -41 4 -76 -22z"/>
<path d="M4579 3013 c-13 -16 -12 -17 4 -4 9 7 17 15 17 17 0 8 -8 3 -21 -13z"/>
<path d="M10601 2911 c-1 -56 30 -123 73 -156 50 -38 55 -30 7 11 -48 42 -61
67 -71 139 l-7 50 -2 -44z"/>
<path d="M8609 2913 l-24 -28 28 24 c15 14 27 26 27 28 0 8 -8 1 -31 -24z"/>
<path d="M12114 2894 c-8 -55 6 -74 53 -74 31 0 35 -3 30 -21 -5 -17 -3 -19 6
-10 6 6 12 29 12 50 0 45 -22 75 -65 90 -29 9 -29 9 -36 -35z"/>
<path d="M4519 2915 c-15 -8 -30 -22 -33 -32 -6 -15 -5 -15 14 2 20 18 20 18
20 -2 0 -28 24 -46 50 -38 24 8 26 37 3 56 -15 13 -13 15 13 20 28 6 28 7 -6
7 -19 1 -47 -5 -61 -13z"/>
<path d="M9278 2883 c6 -2 18 -2 25 0 6 3 1 5 -13 5 -14 0 -19 -2 -12 -5z"/>
<path d="M11991 2817 c-1 -30 46 -87 71 -87 7 0 0 9 -17 20 -18 12 -35 35 -42
57 -11 35 -12 36 -12 10z"/>
<path d="M10466 2760 c22 -9 64 -56 64 -71 0 -5 -15 -9 -34 -9 -43 0 -84 -34
-92 -76 -8 -44 35 -94 81 -94 39 0 80 30 89 65 15 58 65 0 67 -77 l1 -33 9 30
c19 60 -14 160 -69 213 -29 27 -98 62 -122 61 -9 0 -7 -4 6 -9z"/>
<path d="M9660 2730 c0 -5 5 -10 10 -10 6 0 10 -11 10 -24 0 -17 -10 -30 -35
-45 -37 -22 -45 -53 -25 -92 13 -24 66 -26 97 -4 18 13 26 13 43 3 22 -14 24
-28 11 -76 -6 -18 -6 -30 -1 -27 16 10 22 94 10 143 -7 32 -23 61 -47 86 -41
42 -73 62 -73 46z"/>
<path d="M3081 2714 c-76 -20 -157 -69 -218 -131 -51 -52 -107 -151 -118 -208
-4 -21 0 -18 11 13 9 23 24 47 35 52 10 6 30 21 43 33 28 26 99 53 114 43 7
-4 8 -34 5 -79 -7 -87 10 -133 64 -174 49 -38 136 -44 190 -14 83 47 115 149
71 231 -23 41 -98 108 -125 109 -23 2 -24 22 -2 42 24 20 102 48 158 55 49 7
137 -22 206 -67 l60 -39 -40 35 c-117 102 -298 141 -454 99z"/>
<path d="M10738 2723 c6 -2 18 -2 25 0 6 3 1 5 -13 5 -14 0 -19 -2 -12 -5z"/>
<path d="M12088 2723 c7 -3 16 -2 19 1 4 3 -2 6 -13 5 -11 0 -14 -3 -6 -6z"/>
<path d="M10788 2713 c7 -3 16 -2 19 1 4 3 -2 6 -13 5 -11 0 -14 -3 -6 -6z"/>
<path d="M394 2675 c-10 -8 -14 -15 -8 -15 7 0 14 -9 17 -20 6 -22 14 -24 37
-10 12 8 13 13 3 29 -10 15 -10 21 0 24 7 3 3 6 -9 6 -11 1 -29 -6 -40 -14z"/>
<path d="M8312 2590 c-5 -178 -71 -341 -189 -469 -68 -73 -129 -117 -231 -167
-170 -83 -389 -82 -570 1 -64 30 -76 33 -105 23 -43 -15 -74 -36 -82 -56 -5
-13 -2 -13 15 3 20 18 20 18 20 -2 0 -28 24 -46 51 -38 16 6 20 13 17 36 -4
24 -1 29 16 29 12 0 30 -7 40 -15 10 -8 22 -12 26 -10 4 2 28 -4 55 -14 l47
-18 -36 -22 c-34 -22 -66 -57 -66 -73 0 -5 9 1 20 12 29 29 52 26 44 -4 -4
-17 1 -31 15 -45 25 -25 49 -27 80 -5 19 14 22 23 18 55 -6 48 11 56 72 34 36
-12 42 -13 38 -1 -4 11 6 15 39 18 48 3 50 2 29 -26 -21 -28 -18 -42 4 -22 22
20 41 14 41 -14 0 -25 35 -43 66 -36 24 7 35 31 31 76 -2 23 1 25 37 24 39 -2
39 -1 17 15 l-22 17 27 13 c18 8 30 9 37 2 7 -7 14 -5 22 5 10 14 17 14 53 3
50 -15 69 -3 74 44 2 24 9 33 28 38 22 5 23 7 7 14 -17 7 -17 9 -1 26 9 10 20
16 25 14 4 -3 11 4 14 16 6 18 13 20 40 16 45 -7 70 12 61 46 -4 16 -2 27 4
27 5 0 10 5 10 10 0 6 -7 10 -15 10 -19 0 -19 3 5 49 57 114 84 236 78 361
l-4 75 -2 -75z"/>
<path d="M11265 2583 l0 -48 38 -3 c24 -2 40 -9 45 -20 5 -14 7 -12 12 8 13
50 -25 110 -69 110 -25 0 -27 -3 -26 -47z"/>
<path d="M10172 2570 c0 -14 2 -19 5 -12 2 6 2 18 0 25 -3 6 -5 1 -5 -13z"/>
<path d="M11151 2525 c-1 -36 33 -80 69 -90 22 -6 21 -4 -6 13 -37 24 -45 34
-55 76 l-7 31 -1 -30z"/>
<path d="M10175 2481 c2 -28 14 -60 32 -85 33 -48 116 -107 147 -105 20 1 20
2 1 6 -80 20 -157 104 -177 193 -7 32 -7 31 -3 -9z"/>
<path d="M9450 2474 c0 -33 91 -125 124 -124 6 1 2 6 -10 13 -40 23 -72 54
-93 88 -12 19 -21 29 -21 23z"/>
<path d="M1463 2448 c-13 -6 -23 -15 -23 -20 0 -5 4 -7 9 -4 5 3 11 -3 14 -14
6 -23 35 -27 43 -5 4 8 1 22 -5 29 -9 11 -9 15 1 19 9 4 9 5 -2 6 -8 0 -25 -5
-37 -11z"/>
<path d="M10631 2444 c0 -11 3 -14 6 -6 3 7 2 16 -1 19 -3 4 -6 -2 -5 -13z"/>
<path d="M4729 2400 c-17 -14 -19 -18 -6 -14 11 4 17 1 17 -9 0 -22 26 -28 41
-10 11 13 10 17 -5 28 -17 13 -17 13 1 18 15 4 15 5 -3 6 -12 0 -32 -8 -45
-19z"/>
<path d="M9603 2343 c9 -2 23 -2 30 0 6 3 -1 5 -18 5 -16 0 -22 -2 -12 -5z"/>
<path d="M10920 2341 c-63 -20 -122 -66 -149 -118 -17 -34 -13 -38 9 -10 20
25 73 50 84 40 3 -3 3 -17 0 -29 -15 -58 28 -104 94 -104 90 0 113 113 32 155
-38 20 -38 30 1 44 46 16 88 13 137 -9 23 -11 40 -15 37 -10 -3 5 -30 18 -61
29 -55 21 -136 26 -184 12z"/>
<path d="M10393 2283 c9 -2 25 -2 35 0 9 3 1 5 -18 5 -19 0 -27 -2 -17 -5z"/>
<path d="M3712 2173 c-56 -367 -469 -552 -775 -346 -42 28 -48 30 -28 10 31
-34 152 -92 219 -106 256 -53 506 98 576 349 15 57 32 170 24 170 -2 0 -10
-35 -16 -77z"/>
<path d="M4509 2225 c-15 -8 -30 -22 -33 -32 -6 -16 -5 -16 13 1 19 17 20 17
23 -11 2 -22 8 -28 27 -28 33 0 52 32 29 49 -24 17 -23 24 5 29 17 3 15 4 -8
5 -16 1 -42 -5 -56 -13z"/>
<path d="M5960 2199 c-51 -23 -95 -61 -116 -101 -19 -36 -18 -48 2 -20 15 22
63 52 84 52 6 0 8 -14 4 -40 -6 -35 -3 -43 24 -70 81 -81 210 21 132 105 -13
14 -31 27 -42 31 -29 9 -21 21 25 37 35 12 51 12 90 2 53 -13 52 -4 -2 14 -54
18 -150 13 -201 -10z"/>
<path d="M11666 2114 c6 -2 9 -18 6 -34 -3 -24 1 -32 22 -41 14 -7 26 -19 26
-28 0 -14 2 -14 10 -1 25 38 -13 111 -57 109 -10 0 -13 -3 -7 -5z"/>
<path d="M7168 2041 c29 -28 59 -51 65 -50 7 0 1 8 -13 17 -14 9 -43 32 -65
51 -22 18 -16 10 13 -18z"/>
<path d="M11240 2030 c-15 -37 -81 -97 -128 -117 -19 -8 -62 -18 -96 -23 -52
-6 -55 -8 -20 -9 52 -1 126 21 174 53 36 24 99 111 88 122 -3 2 -11 -9 -18
-26z"/>
<path d="M11601 2033 c-1 -24 30 -63 50 -63 7 0 0 9 -14 20 -14 11 -28 30 -30
43 l-4 22 -2 -22z"/>
<path d="M9418 2030 c28 -12 28 -25 -3 -62 -30 -35 -32 -59 -7 -81 22 -20 51
-22 87 -5 21 9 29 9 41 -3 12 -13 13 -21 4 -45 -8 -21 -8 -26 0 -18 18 18 22
77 8 118 -16 47 -69 92 -118 100 -28 5 -31 4 -12 -4z"/>
<path d="M6353 1963 c-15 -3 -27 -18 -39 -49 -18 -47 -77 -107 -122 -126 -15
-6 -54 -17 -87 -23 -33 -7 -49 -13 -35 -14 14 -1 49 5 77 12 46 12 50 12 46
-2 -5 -13 -3 -14 8 -3 19 18 26 15 25 -10 -1 -19 4 -23 29 -23 24 0 31 5 33
23 2 13 -3 25 -13 28 -13 5 -14 9 -4 15 11 6 10 9 -3 14 -14 6 -12 11 11 33
16 15 36 43 46 62 17 32 18 33 26 13 10 -27 25 -36 49 -28 24 8 26 38 3 56
-15 13 -13 15 13 20 28 6 28 7 -6 6 -19 0 -45 -2 -57 -4z"/>
<path d="M9234 1866 c2 -28 12 -59 23 -75 21 -28 79 -71 96 -71 6 0 -10 13
-35 29 -45 29 -68 69 -82 141 -3 14 -3 3 -2 -24z"/>
<path d="M10928 1893 c7 -3 16 -2 19 1 4 3 -2 6 -13 5 -11 0 -14 -3 -6 -6z"/>
<path d="M8129 1833 c-13 -16 -12 -17 4 -4 16 13 21 21 13 21 -2 0 -10 -8 -17
-17z"/>
<path d="M10381 1806 c-2 -44 -1 -45 34 -52 29 -5 36 -10 32 -25 -7 -27 2 -23
13 5 12 32 -5 93 -30 106 -36 19 -46 12 -49 -34z"/>
<path d="M8852 1799 c-35 -7 -67 -32 -84 -64 -11 -19 -10 -19 9 -2 27 24 43
21 43 -7 0 -49 59 -62 87 -19 14 20 13 24 -11 48 -27 27 -24 31 24 37 23 4 23
4 -5 9 -17 3 -45 2 -63 -2z"/>
<path d="M11030 1779 c45 -18 54 -55 15 -65 -51 -13 -73 -84 -37 -117 26 -24
81 -21 108 4 19 18 25 19 44 7 19 -11 21 -19 16 -58 -3 -30 -2 -38 4 -25 16
37 11 128 -9 160 -32 52 -67 83 -107 94 -48 13 -68 13 -34 0z"/>
<path d="M10285 1750 c6 -38 40 -80 64 -80 9 0 2 8 -15 19 -21 13 -35 32 -43
58 -10 37 -11 37 -6 3z"/>
<path d="M6008 1763 c6 -2 18 -2 25 0 6 3 1 5 -13 5 -14 0 -19 -2 -12 -5z"/>
<path d="M7652 1750 c0 -14 2 -19 5 -12 2 6 2 18 0 25 -3 6 -5 1 -5 -13z"/>
<path d="M7579 1623 c-13 -16 -12 -17 4 -4 16 13 21 21 13 21 -2 0 -10 -8 -17
-17z"/>
<path d="M10791 1614 c0 -11 3 -14 6 -6 3 7 2 16 -1 19 -3 4 -6 -2 -5 -13z"/>
<path d="M10791 1574 c0 -11 3 -14 6 -6 3 7 2 16 -1 19 -3 4 -6 -2 -5 -13z"/>
<path d="M10810 1507 c-1 -30 73 -98 120 -111 14 -4 1 7 -27 23 -29 17 -53 35
-53 39 -1 10 -40 59 -40 49z"/>
<path d="M9841 1413 c11 -3 16 -15 15 -41 -1 -32 3 -38 29 -47 22 -7 30 -15
27 -30 -3 -16 -1 -17 7 -5 31 44 -15 131 -67 129 -15 -1 -20 -3 -11 -6z"/>
<path d="M10968 1383 c6 -2 18 -2 25 0 6 3 1 5 -13 5 -14 0 -19 -2 -12 -5z"/>
<path d="M4209 1313 c-13 -16 -17 -22 -9 -15 21 18 30 15 30 -12 0 -28 24 -40
51 -26 25 14 24 35 -2 54 -20 13 -20 14 -2 19 11 3 6 5 -13 6 -22 1 -37 -7
-55 -26z"/>
<path d="M9771 1314 c0 -11 3 -14 6 -6 3 7 2 16 -1 19 -3 4 -6 -2 -5 -13z"/>
<path d="M9780 1282 c0 -14 40 -42 60 -41 13 0 13 1 0 6 -8 3 -25 15 -37 26
-13 11 -23 15 -23 9z"/>
<path d="M7903 894 c-15 -15 -20 -21 -10 -14 14 11 17 10 17 -8 0 -27 24 -45
50 -37 25 8 27 50 3 61 -15 6 -13 8 12 14 30 8 30 8 -7 9 -27 1 -44 -6 -65
-25z"/>
<path d="M11483 821 c-54 -14 -122 -60 -150 -102 -14 -22 -23 -42 -19 -46 3
-3 6 -1 6 5 0 15 59 52 82 52 13 0 15 -7 11 -39 -8 -55 28 -91 90 -91 53 0 87
30 87 78 0 31 -9 43 -60 82 l-25 19 40 16 c37 16 72 16 120 0 11 -3 8 1 -7 9
-32 19 -130 28 -175 17z"/>
<path d="M9809 773 c-8 -9 -9 -14 -3 -10 7 4 14 -2 17 -13 3 -11 12 -20 21
-20 20 0 35 32 18 38 -7 2 -10 8 -6 13 10 16 -33 9 -47 -8z"/>
<path d="M11811 564 c0 -11 3 -14 6 -6 3 7 2 16 -1 19 -3 4 -6 -2 -5 -13z"/>
<path d="M8619 525 c-15 -8 -30 -22 -33 -32 -6 -14 -5 -16 5 -5 19 18 27 15
31 -10 2 -16 11 -24 29 -26 33 -4 46 23 24 48 -19 21 -19 27 3 33 11 3 9 5 -8
5 -14 1 -37 -5 -51 -13z"/>
<path d="M11790 503 c0 -18 -70 -82 -113 -105 -24 -12 -72 -24 -112 -28 l-70
-7 56 -2 c62 -1 124 17 170 49 35 26 84 88 75 97 -3 3 -6 2 -6 -4z"/>
</g>
</svg>
