
        <svg xmlns:rdf="http://www.w3.org/1999/02/22-rdf-syntax-ns#" xmlns="http://www.w3.org/2000/svg" xmlns:cc="http://creativecommons.org/ns#" xmlns:xlink="http://www.w3.org/1999/xlink" xmlns:dc="http://purl.org/dc/elements/1.1/" x="0px" y="0px" width="500" height="603" viewBox="0 0 500 603" xml:space="preserve">
            <title>Seagrass</title>
            <desc xmlns:ian_image_library="https://ian.umces.edu/media-library/">
                <ian_image_library:title>Seagrass</ian_image_library:title>
                <ian_image_library:descr>Illustration of seagrass</ian_image_library:descr>
                <ian_image_library:scene>
                    <ian_image_library:contains>seagrass, SAV, Plantae, vascular</ian_image_library:contains>
                    <ian_image_library:when>1999-01-01</ian_image_library:when>
                </ian_image_library:scene>
            </desc>
            <metadata id="metadata-iil-cdbc6d9bc9149964c50ac73d8b6f1a96">
                <rdf:RDF>
                <cc:Work
                rdf:about="">
                <dc:format>image/svg+xml</dc:format>
                <dc:type
                rdf:resource="http://purl.org/dc/dcmitype/StillImage" />
                <cc:license
                rdf:resource="http://creativecommons.org/licenses/by-sa/3.0/" />
                <dc:title>Seagrass</dc:title>
                <dc:date>1999-01-01</dc:date>
                <dc:creator>
                    <cc:Agent>
                        <dc:title>Diana Kleine
Marine Botany UQ</dc:title>
                    </cc:Agent>
                </dc:creator>
                <dc:rights>
                <cc:Agent>
                    <dc:title>Diana Kleine
Marine Botany UQ</dc:title>
                </cc:Agent>
                </dc:rights>
                <dc:publisher>
                <cc:Agent>
                    <dc:title>Integration and Application Network</dc:title>
                </cc:Agent>
                </dc:publisher>
                <dc:identifier>https://ian.umces.edu/media-library/seagrass/</dc:identifier>
                <dc:source>https://ian.umces.edu/media-library/seagrass/</dc:source>
                <dc:language>en-US</dc:language>
                <dc:subject>
                <rdf:Bag>
                    <rdf:li>seagrass, SAV, Plantae, vascular</rdf:li>
                </rdf:Bag>
                </dc:subject>
                <dc:coverage></dc:coverage>
                <dc:description>Illustration of seagrass</dc:description>
                <dc:contributor>
                <cc:Agent>
                    <dc:title></dc:title>
                </cc:Agent>
                </dc:contributor>
            </cc:Work>
            <cc:License
                rdf:about="http://creativecommons.org/licenses/by-sa/3.0/">
                <cc:permits
                rdf:resource="http://creativecommons.org/ns#Reproduction" />
                <cc:permits
                rdf:resource="http://creativecommons.org/ns#Distribution" />
                <cc:requires
                rdf:resource="http://creativecommons.org/ns#Notice" />
                <cc:requires
                rdf:resource="http://creativecommons.org/ns#Attribution" />
                <cc:permits
                rdf:resource="http://creativecommons.org/ns#DerivativeWorks" />
                <cc:requires
                rdf:resource="http://creativecommons.org/ns#ShareAlike" />
            </cc:License>
            </rdf:RDF>
            </metadata>
            
<g id="ian_symbols_fdde985ceda08b3425f12bd9268d2fab">
	<g id="ian_symbols_7cf77393766926f4b5796ffee9eb483e">
		<g>
			<linearGradient id="ian_symbols_40da3d4386d84e14057bccafa2f57f8a" gradientUnits="userSpaceOnUse" x1="55.1206" y1="312.9419" x2="82.6358" y2="312.9419">
				<stop  offset="0" style="stop-color:#8FC274"/>
				<stop  offset="0.5" style="stop-color:#699A44"/>
				<stop  offset="1" style="stop-color:#4A7C32"/>
			</linearGradient>
			<path fill="url(#ian_symbols_40da3d4386d84e14057bccafa2f57f8a)" d="M75.1,418.9c3.7,18.7,14.9-212.7,0-212.7C41.5,198.7,56.4,366.6,75.1,418.9z"/>
			<linearGradient id="ian_symbols_4ecb7f0c7154ceb44131b18688e20858" gradientUnits="userSpaceOnUse" x1="71.2093" y1="240.0566" x2="169.3745" y2="240.0566">
				<stop  offset="0" style="stop-color:#8FC274"/>
				<stop  offset="0.5" style="stop-color:#699A44"/>
				<stop  offset="1" style="stop-color:#4A7C32"/>
			</linearGradient>
			<path fill="url(#ian_symbols_4ecb7f0c7154ceb44131b18688e20858)" d="M71.4,445c0,41,59.7-302.2,85.8-339.5c22.4-41,11.2-97-11.2-63.4C127.3,75.6,67.6,280.8,71.4,445
				L71.4,445z"/>
			<linearGradient id="ian_symbols_95edebdbaf1352b44dac21d3b69d47e4" gradientUnits="userSpaceOnUse" x1="0" y1="222.4878" x2="75.0914" y2="222.4878">
				<stop  offset="0" style="stop-color:#8FC274"/>
				<stop  offset="0.5" style="stop-color:#699A44"/>
				<stop  offset="1" style="stop-color:#4A7C32"/>
			</linearGradient>
			<path fill="url(#ian_symbols_95edebdbaf1352b44dac21d3b69d47e4)" d="M75.1,445c0,0-41-343.2-41-388c0-44.8-33.6-85.8-33.6-29.8v7.4c-3.7,52.2,14.9,197.7,41,302.2
				C56.4,396.5,75.1,445,75.1,445L75.1,445z"/>
			<linearGradient id="ian_symbols_b1dfb61cf1477744a5fbc674110bd10a" gradientUnits="userSpaceOnUse" x1="344.3681" y1="343.7503" x2="443.6935" y2="343.7503">
				<stop  offset="0" style="stop-color:#8FC274"/>
				<stop  offset="0.5" style="stop-color:#699A44"/>
				<stop  offset="1" style="stop-color:#4A7C32"/>
			</linearGradient>
			<path fill="url(#ian_symbols_b1dfb61cf1477744a5fbc674110bd10a)" d="M429.5,441.2c-3.7-7.4-7.5-78.3-18.7-130.6c-11.2-59.7-18.7-134.3-22.4-153
				c-3.7-33.6-7.5-85.8-37.3-41c-33.6,44.8,67.2,451.4,85.8,470.1C455.6,605.4,429.5,441.2,429.5,441.2L429.5,441.2z"/>
			<linearGradient id="ian_symbols_84310134a11c256401df7b1990b2a0ed" gradientUnits="userSpaceOnUse" x1="425.7994" y1="373.3801" x2="500" y2="373.3801">
				<stop  offset="0" style="stop-color:#8FC274"/>
				<stop  offset="0.5" style="stop-color:#699A44"/>
				<stop  offset="1" style="stop-color:#4A7C32"/>
			</linearGradient>
			<path fill="url(#ian_symbols_84310134a11c256401df7b1990b2a0ed)" d="M440.7,601.7c14.9,18.7,14.9-115.7,33.6-235c7.5-56,14.9-100.7,22.4-134.3c7.4-37.3,0-56,0-63.4
				c0-18.7-22.4-44.8-37.3-3.7c-18.7,44.8-33.6,261.1-33.6,305.9C425.8,515.8,429.5,583,440.7,601.7L440.7,601.7z"/>
			<linearGradient id="ian_symbols_a603bc292f32a3c48577d8e3697d4f24" gradientUnits="userSpaceOnUse" x1="240.5771" y1="254.2686" x2="341.7371" y2="254.2686">
				<stop  offset="0" style="stop-color:#8FC274"/>
				<stop  offset="0.5" style="stop-color:#699A44"/>
				<stop  offset="1" style="stop-color:#4A7C32"/>
			</linearGradient>
			<path fill="url(#ian_symbols_a603bc292f32a3c48577d8e3697d4f24)" d="M257.9,351.7c3.7-7.5,7.5-74.6,18.7-126.9c11.2-63.4,18.6-138,18.6-153
				c3.7-37.3,7.5-89.6,41.1-44.8c29.8,44.8-70.9,451.4-89.5,470.1C228.1,515.9,257.9,351.7,257.9,351.7L257.9,351.7z"/>
			<linearGradient id="ian_symbols_17b0632bb49dbfd4cdb8afb385add5c1" gradientUnits="userSpaceOnUse" x1="184.5901" y1="284.8842" x2="257.9128" y2="284.8842">
				<stop  offset="0" style="stop-color:#8FC274"/>
				<stop  offset="0.5" style="stop-color:#699A44"/>
				<stop  offset="1" style="stop-color:#4A7C32"/>
			</linearGradient>
			<path fill="url(#ian_symbols_17b0632bb49dbfd4cdb8afb385add5c1)" d="M243,512.1c-11.2,18.7-11.2-115.6-29.8-235c-11.2-52.2-14.9-100.7-22.4-134.3
				c-11.2-33.6-3.7-52.2-3.7-59.7c0-18.7,22.4-48.5,41-3.7c14.9,44.8,29.8,257.4,29.8,302.2C257.9,426.3,254.1,493.5,243,512.1
				L243,512.1z"/>
		</g>
	</g>
</g>
</svg>
