<?xml version="1.0" standalone="no"?>
<!DOCTYPE svg PUBLIC "-//W3C//DTD SVG 1.0//EN" "http://www.w3.org/TR/2001/REC-SVG-20010904/DTD/svg10.dtd">
<svg xmlns="http://www.w3.org/2000/svg" xmlns:xlink="http://www.w3.org/1999/xlink" id="body_1" width="134" height="250">

<g transform="matrix(0.1469298 0 0 0.1464558 0 0)">
	<g transform="matrix(0.1333333 0 0 -0.1333594 0 1707)">
	</g>
    <path transform="matrix(0.1333333 0 0 -0.1333594 0 1707)"  d="M3925 12776C 3898 12764 3830 12713 3776 12664C 3595 12502 3556 12470 3496 12440C 3390 12387 3338 12402 3190 12529C 3097 12609 3031 12650 2996 12650C 2961 12650 2948 12586 2940 12385C 2934 12218 2931 12189 2911 12148C 2867 12056 2768 12006 2588 11984C 2456 11968 2372 11946 2364 11925C 2361 11918 2370 11875 2384 11829C 2420 11708 2433 11620 2428 11520C 2421 11369 2361 11277 2159 11109C 2053 11020 2050 11017 2050 10977C 2050 10942 2056 10930 2098 10891C 2124 10866 2191 10812 2247 10773C 2371 10684 2475 10584 2500 10527C 2537 10446 2530 10417 2436 10278C 1795 9328 1662 8453 2040 7692C 2123 7526 2198 7411 2319 7265C 2525 7016 2567 6951 2577 6871C 2587 6781 2546 6737 2374 6653C 2205 6570 2105 6570 2020 6653C 1943 6728 1906 6818 1845 7080C 1801 7269 1775 7358 1759 7374C 1754 7380 1717 7351 1667 7304C 1481 7125 1309 7044 1095 7033C 912 7024 713 7077 483 7195C 426 7223 380 7241 380 7235C 380 7202 450 7092 540 6985C 721 6769 779 6660 766 6560C 757 6492 706 6397 653 6350C 571 6278 488 6247 200 6180C 148 6168 81 6149 52 6138L52 6138L-2 6118L20 6095C 68 6044 186 6001 430 5945C 532 5922 591 5895 631 5854C 660 5824 665 5812 668 5756C 673 5678 644 5606 585 5547C 532 5496 486 5470 324 5404C 248 5373 167 5339 145 5328C 97 5303 20 5249 20 5240C 20 5228 156 5192 335 5155C 539 5114 559 5108 614 5076C 671 5043 700 4978 700 4887C 700 4812 677 4729 614 4582C 590 4525 570 4475 570 4471C 570 4452 704 4487 935 4565C 1217 4660 1236 4665 1338 4680C 1429 4693 1487 4680 1527 4638C 1553 4610 1555 4604 1554 4527C 1554 4454 1547 4425 1492 4265C 1352 3852 1293 3540 1283 3145C 1268 2575 1382 2053 1629 1569C 1788 1254 1966 1012 2220 760C 2484 498 2802 282 3130 142C 3286 75 3318 65 3450 41C 3840 -29 4182 -8 4525 104C 5087 290 5525 726 5748 1325C 5849 1594 5886 1772 5896 2030C 5914 2469 5794 2837 5556 3076C 5424 3208 5267 3291 5070 3332C 4945 3358 4725 3353 4608 3322C 4308 3241 4069 3065 3934 2824C 3841 2658 3798 2357 3859 2297C 3904 2251 3966 2301 4092 2488C 4269 2751 4405 2861 4593 2891C 4729 2913 4875 2856 4987 2736C 5099 2616 5166 2466 5196 2267C 5228 2054 5175 1749 5067 1535C 5006 1413 4955 1343 4860 1250C 4724 1116 4573 1037 4390 1004C 4020 937 3596 1143 3357 1507C 2989 2065 2868 2591 2986 3119C 3118 3708 3549 4219 4220 4583C 4267 4608 4402 4672 4520 4725C 5212 5035 5611 5354 5855 5790C 5997 6045 6063 6313 6064 6635C 6066 7245 5820 7781 5337 8219C 5158 8381 5010 8489 4630 8735C 4261 8974 4006 9200 3923 9364C 3885 9438 3879 9548 3910 9633C 3938 9712 4081 10010 4111 10051C 4137 10088 4144 10080 4154 10002C 4171 9865 4271 9634 4349 9549C 4486 9398 4672 9345 5300 9280C 5729 9235 5843 9200 6035 9054C 6210 8921 6304 8885 6459 8892C 6577 8897 6644 8924 6726 9002C 6809 9080 6835 9130 6835 9210C 6835 9314 6807 9353 6595 9550C 6073 10035 5819 10350 5626 10751C 5520 10971 5465 11139 5410 11410C 5347 11718 5206 11976 5011 12136C 4903 12226 4809 12263 4667 12274C 4576 12281 4537 12298 4520 12339C 4505 12376 4512 12410 4556 12518C 4594 12609 4597 12635 4574 12644C 4557 12650 4471 12624 4383 12584C 4272 12535 4195 12509 4139 12503C 4090 12498 4080 12500 4061 12519C 4044 12536 4040 12551 4041 12608C 4041 12645 4045 12698 4050 12725C 4057 12766 4055 12777 4042 12788C 4018 12806 3981 12803 3925 12776z" stroke="none" fill="#FFC107" fill-rule="nonzero" />
</g>
</svg>