<?xml version="1.0" standalone="no"?><svg xmlns="http://www.w3.org/2000/svg" viewBox="0 0 1440 320"><path fill="#16324f" fill-opacity="1" d="M0,192L30,165.3C60,139,120,85,180,85.3C240,85,300,139,360,144C420,149,480,107,540,112C600,117,660,171,720,192C780,213,840,203,900,170.7C960,139,1020,85,1080,90.7C1140,96,1200,160,1260,170.7C1320,181,1380,139,1410,117.3L1440,96L1440,320L1410,320C1380,320,1320,320,1260,320C1200,320,1140,320,1080,320C1020,320,960,320,900,320C840,320,780,320,720,320C660,320,600,320,540,320C480,320,420,320,360,320C300,320,240,320,180,320C120,320,60,320,30,320L0,320Z"></path></svg>
