<?xml version="1.0" standalone="no"?><svg xmlns="http://www.w3.org/2000/svg" viewBox="0 0 1440 320"><path fill="#16324f" fill-opacity="1" d="M0,160L30,154.7C60,149,120,139,180,144C240,149,300,171,360,154.7C420,139,480,85,540,85.3C600,85,660,139,720,160C780,181,840,171,900,138.7C960,107,1020,53,1080,58.7C1140,64,1200,128,1260,149.3C1320,171,1380,149,1410,138.7L1440,128L1440,0L1410,0C1380,0,1320,0,1260,0C1200,0,1140,0,1080,0C1020,0,960,0,900,0C840,0,780,0,720,0C660,0,600,0,540,0C480,0,420,0,360,0C300,0,240,0,180,0C120,0,60,0,30,0L0,0Z"></path></svg>